<?xml version="1.0" standalone="no"?>
<!DOCTYPE svg PUBLIC "-//W3C//DTD SVG 20010904//EN"
 "http://www.w3.org/TR/2001/REC-SVG-20010904/DTD/svg10.dtd">
<svg version="1.0" xmlns="http://www.w3.org/2000/svg"
 width="112.000000pt" height="112.000000pt" viewBox="0 0 112.000000 112.000000"
 preserveAspectRatio="xMidYMid meet">
<metadata>
Created by potrace 1.14, written by Peter Selinger 2001-2017
</metadata>
<g transform="translate(0.000000,112.000000) scale(0.100000,-0.100000)"
fill="#000000" stroke="none">
<path d="M335 1112 c-11 -2 -32 -13 -47 -23 -14 -11 -30 -19 -35 -19 -12 0
-87 -106 -96 -139 -5 -15 -22 -36 -38 -45 -29 -17 -75 -77 -81 -106 -2 -8 -9
-21 -16 -28 -7 -8 -10 -17 -7 -22 3 -5 1 -11 -5 -15 -13 -8 -13 -292 0 -300 6
-3 10 -13 10 -21 0 -8 -4 -12 -10 -9 -7 4 -10 -62 -10 -190 l0 -196 353 3 352
3 37 26 c21 14 35 29 31 32 -3 4 8 7 25 7 17 0 34 5 37 10 4 7 12 7 18 2 13
-9 84 -9 107 1 8 4 26 8 40 10 14 2 30 13 35 23 6 11 18 18 29 16 10 -2 22 0
27 5 20 20 36 203 19 213 -6 4 -12 14 -14 23 -4 26 -78 88 -98 81 -10 -3 -27
-2 -38 1 -17 6 -20 12 -14 41 4 25 2 40 -9 52 -9 9 -18 29 -22 43 -3 14 -17
38 -31 54 -30 35 -30 39 2 60 14 9 34 25 45 36 10 10 24 19 30 19 5 0 8 4 4 9
-3 5 -1 12 5 16 5 3 10 21 10 39 0 42 -65 119 -115 138 -31 11 -40 24 -36 51
0 4 -3 7 -9 7 -5 0 -10 6 -10 14 0 7 -14 25 -32 40 -45 37 -111 39 -185 5 -52
-23 -49 -23 -84 2 -16 11 -29 17 -29 12 0 -4 -4 -2 -8 5 -9 13 -101 23 -137
14z m372 -825 c-6 -15 -65 -29 -81 -19 -5 3 11 13 35 22 47 19 54 19 46 -3z"/>
</g>
</svg>
